<svg version="1.1" id="Layer_1" xmlns="http://www.w3.org/2000/svg" x="0" y="0" viewBox="0 0 120 120" style="enable-background:new 0 0 120 120" xml:space="preserve"><style>.st0{fill:#f6fafb}</style><path id="XMLID_26_" class="st0" d="M73.6 9.1C71.6 3.8 66.4 0 60.4 0S49.3 3.8 47.3 9.1c-.6 1.6-.9 3.2-.9 5 0 .8.1 1.6.2 2.3 1.1 6.7 6.9 11.8 13.9 11.8s12.8-5.1 13.9-11.8c.1-.8.2-1.5.2-2.3-.1-1.8-.4-3.5-1-5zM60.4 19.9c-2.4 0-4.5-1.5-5.4-3.5-.3-.7-.5-1.5-.5-2.3 0-2.1 1.1-4 2.8-5 .9-.5 1.9-.8 3-.8s2.1.3 3 .8c1.7 1 2.8 2.9 2.8 5 0 .8-.2 1.6-.5 2.3-.7 2.1-2.8 3.5-5.2 3.5z"/><path id="XMLID_8_" class="st0" d="M80.7 16.4v15.4H40.1V16.4H55c.9 2.1 3 3.5 5.4 3.5s4.5-1.5 5.4-3.5h14.9z"/><g id="XMLID_12_"><path id="XMLID_20_" class="st0" d="M93.8 16.1c3.5 0 6.4 2.9 6.4 6.4v84.1c0 3.5-2.9 6.4-6.4 6.4H27.1c-3.5 0-6.4-2.9-6.4-6.4V22.5c0-3.5 2.9-6.4 6.4-6.4h20.7c.2 1.1.5 2.1.9 3.1 2 4.7 6.7 7.7 11.8 7.7s9.8-3 11.8-7.8c.4-1 .7-2 .9-3.1h20.6m0-6.9H63.4c1.7 1 2.8 2.9 2.8 5 0 .8-.2 1.6-.5 2.3-.9 2.1-3 3.5-5.4 3.5s-4.5-1.5-5.4-3.5c-.3-.7-.5-1.5-.5-2.3 0-2.1 1.1-4 2.8-5H27.1c-7.4 0-13.4 6-13.4 13.4v84.1c0 7.4 6 13.4 13.4 13.4h66.8c7.4 0 13.4-6 13.4-13.4V22.5c-.1-7.4-6.1-13.4-13.5-13.4z"/></g><path id="XMLID_1_" class="st0" d="M82.3 53.7H39.7c-1.4 0-2.5-1.1-2.5-2.5v-1.5c0-1.4 1.1-2.5 2.5-2.5h42.6c1.4 0 2.5 1.1 2.5 2.5v1.5c0 1.4-1.1 2.5-2.5 2.5z"/><path id="XMLID_5_" class="st0" d="M82.3 72.5H39.7c-1.4 0-2.5-1.1-2.5-2.5v-1.5c0-1.4 1.1-2.5 2.5-2.5h42.6c1.4 0 2.5 1.1 2.5 2.5V70c0 1.4-1.1 2.5-2.5 2.5z"/><path id="XMLID_7_" class="st0" d="M82.3 91.4H39.7c-1.4 0-2.5-1.1-2.5-2.5v-1.5c0-1.4 1.1-2.5 2.5-2.5h42.6c1.4 0 2.5 1.1 2.5 2.5v1.5c0 1.3-1.1 2.5-2.5 2.5z"/></svg>