<svg version="1.1" id="Layer_1" xmlns="http://www.w3.org/2000/svg" x="0" y="0" viewBox="0 0 120 120" style="enable-background:new 0 0 120 120" xml:space="preserve"><style>.st0{fill:#f6fafb}</style><path id="XMLID_3_" class="st0" d="M65.3 26.4H28.5c-9 0-16.3 7.3-16.3 16.3v60.9c0 9 7.3 16.3 16.3 16.3h36.9c9 0 16.3-7.3 16.3-16.3V42.7c-.1-9-7.4-16.3-16.4-16.3zm6.4 77.3c0 3.5-2.9 6.4-6.4 6.4H28.5c-3.5 0-6.4-2.9-6.4-6.4v-61c0-3.5 2.9-6.4 6.4-6.4h36.9c3.5 0 6.4 2.9 6.4 6.4v61z"/><path id="XMLID_4_" class="st0" d="M91.5 0H54.7c-9 0-16.3 7.3-16.3 16.3V35h9.9V16.3c0-3.5 2.9-6.4 6.4-6.4h36.9c3.5 0 6.4 2.9 6.4 6.4v60.9c0 3.5-2.9 6.4-6.4 6.4H73.1v9.9h18.4c9 0 16.3-7.3 16.3-16.3V16.3c0-9-7.3-16.3-16.3-16.3z"/><path id="XMLID_1_" class="st0" d="M60.8 61.5h-29c-1.3 0-2.4-1.1-2.4-2.4v-2c0-1.3 1.1-2.4 2.4-2.4h28.9c1.3 0 2.4 1.1 2.4 2.4v2c.1 1.3-1 2.4-2.3 2.4z"/><path id="XMLID_6_" class="st0" d="M60.8 76.7h-29c-1.3 0-2.4-1.1-2.4-2.4v-2c0-1.3 1.1-2.4 2.4-2.4h28.9c1.3 0 2.4 1.1 2.4 2.4v2c.1 1.3-1 2.4-2.3 2.4z"/><path id="XMLID_8_" class="st0" d="M51 91.8H31.8c-1.3 0-2.4-1.1-2.4-2.4v-2c0-1.3 1.1-2.4 2.4-2.4H51c1.3 0 2.4 1.1 2.4 2.4v2c0 1.3-1.1 2.4-2.4 2.4z"/></svg>