<?xml version="1.0" encoding="utf-8"?>
<!-- Generator: Adobe Illustrator 19.0.0, SVG Export Plug-In . SVG Version: 6.00 Build 0)  -->
<svg version="1.1" id="Layer_1" xmlns="http://www.w3.org/2000/svg" xmlns:xlink="http://www.w3.org/1999/xlink" x="0px" y="0px"
	 viewBox="0 0 120 120" style="enable-background:new 0 0 120 120;" xml:space="preserve">
<style type="text/css">
	.st0{fill:#F6FAFB;}
</style>
<circle id="XMLID_1_" class="st0" cx="33.4" cy="35.9" r="31.9"/>
<path class="st0" d="M75.5,6.5C35.2,8.9,2.7,41.3,0.2,81.6c-0.6,10.1,0.6,19.9,3.4,28.9c1.5,5,7.5,7.1,11.9,4.3l3.8-2.4
	c3-1.9,4.3-5.6,3.4-9c-1.7-6-2.6-12.3-2.3-18.9c1.1-31.7,27.4-57.4,59.1-57.9c9.7-0.2,18.9,2,27,6c3.7,1.8,8.1,0.4,10.2-3.1l2.2-3.7
	c2.4-4,0.9-9.3-3.4-11.3C103.5,8.6,89.9,5.7,75.5,6.5z"/>
</svg>
