<?xml version="1.0" encoding="utf-8"?>
<!-- Generator: Adobe Illustrator 19.0.0, SVG Export Plug-In . SVG Version: 6.00 Build 0)  -->
<svg version="1.1" id="Layer_1" xmlns="http://www.w3.org/2000/svg" xmlns:xlink="http://www.w3.org/1999/xlink" x="0px" y="0px"
	 viewBox="0 0 120 120" style="enable-background:new 0 0 120 120;" xml:space="preserve">
<style type="text/css">
	.st0{fill:#F6FAFB;}
</style>
<circle id="XMLID_1_" class="st0" cx="28.1" cy="57.1" r="23.6"/>
<path id="XMLID_2_" class="st0" d="M26.6,76L42,70.2l15,39.5c1.3,3.6-0.5,7.5-3.9,8.8l-2.8,1.1c-3.6,1.3-7.5-0.5-8.8-3.9L26.6,76z"
	/>
<path id="XMLID_3_" class="st0" d="M44.4,3.7c1.8-3.2,5.9-4.5,9.2-2.7l2.6,1.5c3.2,1.8,4.5,5.9,2.7,9.2L38.7,48.9L24.3,41L44.4,3.7z
	"/>
<path class="st0" d="M91.6,86h-4.4c-2.2,0-4-1.8-4-4V42.3c0-2.2,1.8-4,4-4h4.4c2.2,0,4,1.8,4,4V82C95.6,84.2,93.8,86,91.6,86z"/>
<path class="st0" d="M95.4,96.1l-3.1,3.1c-1.6,1.6-4.1,1.6-5.7,0L64.2,76.8c-1.6-1.6-1.6-4.1,0-5.7l3.1-3.1c1.6-1.6,4.1-1.6,5.7,0
	l22.4,22.4C96.9,92,96.9,94.5,95.4,96.1z"/>
<path class="st0" d="M83.5,96.1l3.1,3.1c1.6,1.6,4.1,1.6,5.7,0l22.4-22.4c1.6-1.6,1.6-4.1,0-5.7l-3.1-3.1c-1.6-1.6-4.1-1.6-5.7,0
	L83.5,90.4C81.9,92,81.9,94.5,83.5,96.1z"/>
</svg>
