<svg version="1.1" id="Layer_1" xmlns="http://www.w3.org/2000/svg" x="0" y="0" viewBox="0 0 120 120" style="enable-background:new 0 0 120 120" xml:space="preserve"><style>.st0{fill:#f6fafb}</style><circle id="XMLID_1_" class="st0" cx="73.7" cy="52.9" r="25.2"/><path id="XMLID_8_" class="st0" d="M95.3 5.6C83.2.2 69.7-.2 57.3 4.5 53.4 6 49.7 8 46.4 10.3c-4.1 2.9-3.5 9.2 1.1 11.3 2.1.9 4.5.7 6.4-.6 2.4-1.7 5.1-3.1 8-4.2 9.2-3.5 19.1-3.2 28.1.8 1.7.7 3.2 1.6 4.7 2.5 2.6 1.6 6 1.3 8.1-.9 2.9-3 2.3-7.9-1.2-10.1-1.9-1.4-4.1-2.5-6.3-3.5z"/><path id="XMLID_2_" class="st0" d="m72 73.2 16.5-6.3 16 42c1.5 3.9-.5 8.2-4.3 9.7l-2.5 1c-3.9 1.5-8.2-.5-9.7-4.3L72 73.2z"/><path id="XMLID_4_" class="st0" d="M6.9 26.9 8 24.4c1.7-3.8 6.1-5.5 9.9-3.8l41 18.3L51.7 55l-41-18.3c-3.8-1.7-5.5-6.1-3.8-9.8z"/><path id="XMLID_3_" class="st0" d="m99.6 4.8 5.1 21.7 6.8-1.6c1.3-.3 2.1-1.6 1.8-2.9l-4.5-19.3c-.4-1.8-2.3-3-4.1-2.5l-2.5.6c-1.9.3-3.1 2.2-2.6 4z"/><path id="XMLID_6_" class="st0" d="m92.2 29.4 19.3-4.5c1.3-.3 2.1-1.6 1.8-2.9l-1.6-6.8L90 20.3c-1.8.4-3 2.3-2.5 4.1l.6 2.5c.4 1.8 2.2 2.9 4.1 2.5z"/></svg>