<?xml version="1.0" encoding="utf-8"?>
<!-- Generator: Adobe Illustrator 19.0.0, SVG Export Plug-In . SVG Version: 6.00 Build 0)  -->
<svg version="1.1" id="Layer_1" xmlns="http://www.w3.org/2000/svg" xmlns:xlink="http://www.w3.org/1999/xlink" x="0px" y="0px"
	 viewBox="0 0 120 120" style="enable-background:new 0 0 120 120;" xml:space="preserve">
<style type="text/css">
	.st0{fill:#F6FAFB;}
</style>
<circle id="XMLID_1_" class="st0" cx="84.6" cy="34.1" r="26.1"/>
<path id="XMLID_2_" class="st0" d="M82.9,55.1l17-6.5l16.6,43.6c1.5,3.9-0.5,8.2-4.3,9.7l-3.1,1.2c-3.9,1.5-8.2-0.5-9.7-4.3
	L82.9,55.1z"/>
<path id="XMLID_4_" class="st0" d="M15.5,7.4l1.3-3c1.8-3.8,6.2-5.4,10-3.8l42.6,19.1l-7.5,16.6l-42.6-19
	C15.5,15.6,13.8,11.2,15.5,7.4z"/>
<path id="XMLID_3_" class="st0" d="M34.8,120.4H28c-2.3,0-4.3-1.9-4.3-4.3V66.3c0-2.3,1.9-4.3,4.3-4.3h6.8c2.3,0,4.3,1.9,4.3,4.3
	v49.9C39.1,118.5,37.2,120.4,34.8,120.4z"/>
<path id="XMLID_6_" class="st0" d="M2.2,94.6v-6.8c0-2.3,1.9-4.3,4.3-4.3h49.9c2.3,0,4.3,1.9,4.3,4.3v6.8c0,2.3-1.9,4.3-4.3,4.3H6.5
	C4.1,98.9,2.2,97,2.2,94.6z"/>
</svg>
