<svg version="1.1" id="Layer_1" xmlns="http://www.w3.org/2000/svg" x="0" y="0" viewBox="0 0 120 120" style="enable-background:new 0 0 120 120" xml:space="preserve"><style>.st0{fill:#f6fafb}</style><circle id="XMLID_1_" class="st0" cx="79.3" cy="68.4" r="17.8"/><path id="XMLID_2_" class="st0" d="m70.6 79.9 12.2 2.5-6.6 31.2c-.6 2.8-3.3 4.5-6.1 4l-2.2-.4c-2.8-.6-4.5-3.3-4-6.1l6.7-31.2z"/><path id="XMLID_3_" class="st0" d="M111.4 41.2c2.4-1.3 5.6-.4 7 2.1l1.1 2c1.3 2.4.4 5.6-2.1 7l-28 15.3-6-10.9 28-15.5z"/><path class="st0" d="m12.7 42.2-1.1 2.9c-.8 2.1.2 4.4 2.3 5.2L46.3 63c2.1.8 4.4-.2 5.2-2.3l1.1-2.9c.8-2.1-.2-4.4-2.3-5.2L17.9 39.9c-2.1-.8-4.4.2-5.2 2.3z"/><path class="st0" d="m5.3 35.5-2.9 1.3c-2 .9-2.9 3.2-2.1 5.3l11.1 25.3c.9 2 3.2 2.9 5.3 2.1l2.9-1.3c2-.9 2.9-3.2 2.1-5.3L10.5 37.6c-.9-2-3.2-2.9-5.2-2.1z"/><path class="st0" d="M1.6 44.9.3 42c-.9-2 0-4.4 2.1-5.3l25.3-11.1c2-.9 4.4 0 5.3 2.1l1.3 2.9c.9 2 0 4.4-2.1 5.3L6.8 47c-2 .9-4.3 0-5.2-2.1zM64.3 10.2l-.6.1c-2.1.4-3.5 2.5-3 4.6l5 24.1c.4 2.1 2.5 3.5 4.6 3l.6-.1c2.1-.4 3.5-2.5 3-4.6l-5-24.1c-.4-2.1-2.4-3.5-4.6-3z"/><path class="st0" d="m65.6 2-.5-.3C63.3.5 60.9 1 59.7 2.8l-10.5 16c-1.2 1.8-.7 4.2 1.1 5.4l.5.3c1.8 1.2 4.2.7 5.4-1.1l10.5-16c1.2-1.8.7-4.2-1.1-5.4z"/><path class="st0" d="m59.3 3.3.3-.5C60.8 1 63.2.5 65 1.7l16 10.5c1.8 1.2 2.3 3.6 1.1 5.4l-.3.5c-1.2 1.8-3.6 2.3-5.4 1.1l-16-10.5c-1.8-1.2-2.3-3.6-1.1-5.4z"/></svg>