<svg version="1.1" id="Layer_1" xmlns="http://www.w3.org/2000/svg" x="0" y="0" viewBox="0 0 120 120" style="enable-background:new 0 0 120 120" xml:space="preserve"><style>.st0{fill:#f6fafb}</style><circle id="XMLID_1_" class="st0" cx="84.6" cy="34.1" r="26.1"/><path id="XMLID_2_" class="st0" d="m82.9 55.1 17-6.5 16.6 43.6c1.5 3.9-.5 8.2-4.3 9.7l-3.1 1.2c-3.9 1.5-8.2-.5-9.7-4.3L82.9 55.1z"/><path id="XMLID_4_" class="st0" d="m15.5 7.4 1.3-3C18.6.6 23-1 26.8.6l42.6 19.1-7.5 16.6-42.6-19c-3.8-1.7-5.5-6.1-3.8-9.9z"/><path id="XMLID_3_" class="st0" d="M34.8 120.4H28c-2.3 0-4.3-1.9-4.3-4.3V66.3c0-2.3 1.9-4.3 4.3-4.3h6.8c2.3 0 4.3 1.9 4.3 4.3v49.9c0 2.3-1.9 4.2-4.3 4.2z"/><path id="XMLID_6_" class="st0" d="M2.2 94.6v-6.8c0-2.3 1.9-4.3 4.3-4.3h49.9c2.3 0 4.3 1.9 4.3 4.3v6.8c0 2.3-1.9 4.3-4.3 4.3H6.5c-2.4 0-4.3-1.9-4.3-4.3z"/></svg>