<?xml version="1.0" encoding="utf-8"?>
<!-- Generator: Adobe Illustrator 19.0.0, SVG Export Plug-In . SVG Version: 6.00 Build 0)  -->
<svg version="1.1" id="Layer_1" xmlns="http://www.w3.org/2000/svg" xmlns:xlink="http://www.w3.org/1999/xlink" x="0px" y="0px"
	 viewBox="0 0 120 120" style="enable-background:new 0 0 120 120;" xml:space="preserve">
<style type="text/css">
	.st0{fill:#F6FAFB;}
</style>
<g id="XMLID_1_">
	<path id="XMLID_19_" class="st0" d="M57.4,18.6c8.8,0,15.9,7.1,15.9,15.9s-7.1,15.9-15.9,15.9s-15.9-7.1-15.9-15.9
		S48.6,18.6,57.4,18.6 M57.4,12.4c-12.2,0-22.2,10-22.2,22.2s10,22.2,22.2,22.2s22.2-10,22.2-22.2S69.6,12.4,57.4,12.4L57.4,12.4z"
		/>
</g>
<path id="XMLID_2_" class="st0" d="M52,54.5v47.8c0,2.2,1.8,4,4,4h2.8c2.2,0,4-1.8,4-4V54.5C62.8,54.5,52,54.5,52,54.5z"/>
<path id="XMLID_4_" class="st0" d="M56,106.4h16.3c2.2,0,4-1.8,4-4v-2.8c0-2.2-1.8-4-4-4H56c-2.2,0-4,1.8-4,4v2.8
	C52,104.6,53.8,106.4,56,106.4z"/>
<path id="XMLID_6_" class="st0" d="M56,84.7h16.3c2.2,0,4-1.8,4-4v-2.8c0-2.2-1.8-4-4-4H56c-2.2,0-4,1.8-4,4v2.8
	C52,82.9,53.8,84.7,56,84.7z"/>
<path class="st0" d="M101.5,43.8l-3,1.7c-1.6,0.9-2.4,2.8-1.8,4.6c1.3,3.8,2.1,7.9,2.1,12.2c0,8.8-3.1,16.9-8.3,23.2
	c-1.3,1.6-1.1,4.1,0.5,5.4l2.6,2.2c1.7,1.4,4.1,1.1,5.5-0.6c6.7-8.3,10.7-18.8,10.7-30.3c0-5.8-1-11.3-2.9-16.4
	C106.2,43.6,103.6,42.7,101.5,43.8z"/>
<path class="st0" d="M103.4,33.7l-2.6-1.4c-1.8-1-4.1-0.4-5.1,1.5l-10.5,19c-1,1.8-0.4,4.1,1.5,5.1l2.6,1.4c1.8,1,4.1,0.4,5.1-1.5
	l10.5-19C105.8,37,105.2,34.7,103.4,33.7z"/>
<path class="st0" d="M95.7,33.7l-1.4,2.6c-1,1.8-0.4,4.1,1.5,5.1l17.4,9.6c1.8,1,4.1,0.4,5.1-1.5l1.4-2.6c1-1.8,0.4-4.1-1.5-5.1
	l-17.4-9.6C99,31.3,96.7,31.9,95.7,33.7z"/>
<path class="st0" d="M18.6,86.4l2.7-2.1c1.5-1.1,2-3.2,1.1-4.8c-1.9-3.6-3.2-7.5-3.8-11.8c-1.3-8.7,0.6-17.2,4.8-24.2
	c1.1-1.8,0.5-4.2-1.3-5.3l-2.9-1.8c-1.9-1.1-4.3-0.5-5.4,1.4C8.3,47,5.9,58,7.5,69.3c0.8,5.7,2.7,11,5.3,15.8
	C13.9,87.2,16.7,87.8,18.6,86.4z"/>
<path class="st0" d="M18.1,96.6l2.8,1c1.9,0.7,4.1-0.3,4.8-2.2l7.6-20.3c0.7-1.9-0.3-4.1-2.2-4.8l-2.8-1c-1.9-0.7-4.1,0.3-4.8,2.2
	L16,91.8C15.2,93.7,16.2,95.9,18.1,96.6z"/>
<path class="st0" d="M25.8,95.5l1-2.8c0.7-1.9-0.3-4.1-2.2-4.8L6,80.9c-1.9-0.7-4.1,0.3-4.8,2.2l-1,2.8c-0.7,1.9,0.3,4.1,2.2,4.8
	l18.6,7C22.9,98.4,25,97.4,25.8,95.5z"/>
</svg>
