<svg version="1.1" id="Layer_1" xmlns="http://www.w3.org/2000/svg" x="0" y="0" viewBox="0 0 120 120" style="enable-background:new 0 0 120 120" xml:space="preserve"><style>.st0{fill:#f6fafb}</style><path id="XMLID_1_" class="st0" d="m117 67.1-4.6 4.6c-3.9 3.9-10.2 3.9-14.1 0L55.8 29.3c-3.9-3.9-3.9-10.2 0-14.1l4.6-4.6c3.9-3.9 10.2-3.9 14.1 0L117 53c3.9 3.9 3.9 10.2 0 14.1z"/><path id="XMLID_3_" class="st0" d="m112.4 48.2 4.6 4.6c3.9 3.9 3.9 10.2 0 14.1l-42.4 42.4c-3.9 3.9-10.2 3.9-14.1 0l-4.6-4.6c-3.9-3.9-3.9-10.2 0-14.1l42.4-42.4c3.8-3.9 10.2-3.9 14.1 0z"/><path id="XMLID_5_" class="st0" d="m64.2 67.1-4.6 4.6c-3.9 3.9-10.2 3.9-14.1 0L3 29.3C-.9 25.4-.9 19.1 3 15.2l4.6-4.6c3.9-3.9 10.2-3.9 14.1 0L64.2 53c3.9 3.9 3.9 10.2 0 14.1z"/><path id="XMLID_4_" class="st0" d="m59.6 48.2 4.6 4.6c3.9 3.9 3.9 10.2 0 14.1l-42.4 42.4c-3.9 3.9-10.2 3.9-14.1 0L3 104.8c-3.9-3.9-3.9-10.2 0-14.1l42.4-42.4c3.9-4 10.2-4 14.2-.1z"/></svg>