<?xml version="1.0" encoding="utf-8"?>
<!-- Generator: Adobe Illustrator 19.0.0, SVG Export Plug-In . SVG Version: 6.00 Build 0)  -->
<svg version="1.1" id="Layer_1" xmlns="http://www.w3.org/2000/svg" xmlns:xlink="http://www.w3.org/1999/xlink" x="0px" y="0px"
	 viewBox="0 0 120 120" style="enable-background:new 0 0 120 120;" xml:space="preserve">
<style type="text/css">
	.st0{fill:#F6FAFB;}
</style>
<path id="XMLID_1_" class="st0" d="M2.9,67.1l4.7,4.6c3.9,3.9,10.2,3.9,14.1,0l42.5-42.4c3.9-3.9,3.9-10.2,0-14.1l-4.7-4.6
	c-3.9-3.9-10.2-3.9-14.1,0L2.9,53C-1,56.9-1,63.2,2.9,67.1z"/>
<path id="XMLID_3_" class="st0" d="M7.6,48.2l-4.7,4.6C-1,56.8-1,63.1,2.9,67l42.5,42.4c3.9,3.9,10.2,3.9,14.1,0l4.7-4.6
	c3.9-3.9,3.9-10.2,0-14.1L21.7,48.2C17.8,44.3,11.5,44.3,7.6,48.2z"/>
<path id="XMLID_5_" class="st0" d="M55.8,67.1l4.7,4.6c3.9,3.9,10.2,3.9,14.1,0l42.5-42.4c3.9-3.9,3.9-10.2,0-14.1l-4.7-4.6
	c-3.9-3.9-10.2-3.9-14.1,0L55.8,53C51.9,56.9,51.9,63.2,55.8,67.1z"/>
<path id="XMLID_4_" class="st0" d="M60.5,48.2l-4.7,4.6c-3.9,3.9-3.9,10.2,0,14.1l42.5,42.4c3.9,3.9,10.2,3.9,14.1,0l4.7-4.6
	c3.9-3.9,3.9-10.2,0-14.1L74.6,48.2C70.7,44.3,64.4,44.3,60.5,48.2z"/>
</svg>
