<svg version="1.1" id="Layer_1" xmlns="http://www.w3.org/2000/svg" x="0" y="0" viewBox="0 0 120 120" style="enable-background:new 0 0 120 120" xml:space="preserve"><style>.st0{fill:#f6fafb}</style><path id="XMLID_1_" class="st0" d="M60.8 75.3c-3.9 0-7.1-3.2-7.1-7.1v-45c0-3.9 3.2-7.1 7.1-7.1 3.9 0 7.1 3.2 7.1 7.1v45c0 3.9-3.2 7.1-7.1 7.1z"/><path id="XMLID_3_" class="st0" d="M38.1 29.8c-2.8-2.8-2.8-7.3 0-10.1L55.7 2.1c2.8-2.8 7.3-2.8 10.1 0s2.8 7.3 0 10.1L48.2 29.8c-2.8 2.8-7.3 2.8-10.1 0z"/><path id="XMLID_4_" class="st0" d="M83.4 29.8c-2.8 2.8-7.3 2.8-10.1 0L55.7 12.2c-2.8-2.8-2.8-7.3 0-10.1s7.3-2.8 10.1 0l17.6 17.6c2.8 2.8 2.8 7.3 0 10.1z"/><path id="XMLID_7_" class="st0" d="M44.8 60c0 3.9 3.2 7.1 7.1 7.1h45c3.9 0 7.1-3.2 7.1-7.1 0-3.9-3.2-7.1-7.1-7.1h-45c-4 0-7.1 3.2-7.1 7.1z"/><path id="XMLID_6_" class="st0" d="M90.2 82.7c2.8 2.8 7.3 2.8 10.1 0L117.9 65c2.8-2.8 2.8-7.3 0-10.1s-7.3-2.8-10.1 0L90.2 72.6c-2.8 2.7-2.8 7.3 0 10.1z"/><path id="XMLID_5_" class="st0" d="M90.2 37.3c-2.8 2.8-2.8 7.3 0 10.1L107.8 65c2.8 2.8 7.3 2.8 10.1 0s2.8-7.3 0-10.1l-17.6-17.6c-2.8-2.7-7.3-2.7-10.1 0z"/><path id="XMLID_10_" class="st0" d="M60.7 44.8c3.9 0 7.1 3.2 7.1 7.1v45c0 3.9-3.2 7.1-7.1 7.1-3.9 0-7.1-3.2-7.1-7.1v-45c0-4 3.2-7.1 7.1-7.1z"/><path id="XMLID_9_" class="st0" d="M83.4 90.2c2.8 2.8 2.8 7.3 0 10.1l-17.6 17.6c-2.8 2.8-7.3 2.8-10.1 0s-2.8-7.3 0-10.1l17.6-17.6c2.8-2.8 7.3-2.8 10.1 0z"/><path id="XMLID_8_" class="st0" d="M38.1 90.2c2.8-2.8 7.3-2.8 10.1 0l17.6 17.6c2.8 2.8 2.8 7.3 0 10.1s-7.3 2.8-10.1 0l-17.6-17.6c-2.8-2.8-2.8-7.3 0-10.1z"/><path id="XMLID_13_" class="st0" d="M75.3 60c0-3.9-3.2-7.1-7.1-7.1h-45c-3.9 0-7.1 3.2-7.1 7.1 0 3.9 3.2 7.1 7.1 7.1h45c3.9 0 7.1-3.2 7.1-7.1z"/><path id="XMLID_12_" class="st0" d="M29.8 37.3c-2.8-2.8-7.3-2.8-10.1 0L2.1 55c-2.8 2.8-2.8 7.3 0 10.1s7.3 2.8 10.1 0l17.6-17.6c2.8-2.8 2.8-7.4 0-10.2z"/><path id="XMLID_11_" class="st0" d="M29.8 82.7c2.8-2.8 2.8-7.3 0-10.1L12.2 55c-2.8-2.8-7.3-2.8-10.1 0s-2.8 7.3 0 10.1l17.6 17.6c2.8 2.7 7.3 2.7 10.1 0z"/></svg>