<svg version="1.1" id="Layer_1" xmlns="http://www.w3.org/2000/svg" x="0" y="0" viewBox="11.5 0 296.8 120" style="enable-background:new 11.5 0 296.8 120" xml:space="preserve"><style>.st1{fill:#772fea}</style><path d="m52.6 80.3 4.2 11.3c.7 1.9 0 4-1.7 5.1l-35.8 22.5c-3.4 2.1-7.8-.3-7.8-4.3v-59c0-3.1 3.1-5.1 5.9-3.9l9.6 4.3c1.4.6 2.3 2 2.3 3.5 0 .5.1.9.1 1.4 1.1 9.5 9.5 16.5 19.1 16.5 2-.1 3.5 1 4.1 2.6z" style="fill:#4f535b"/><path class="st1" d="M106.7 64.3 73.7 85c-2.3 1.4-5.3.4-6.2-2.1l-3.7-9.8c-.5-1.3-.3-2.7.5-3.8 2.4-3.5 3.7-7.7 3.3-12.3-.7-9.6-8.7-17.3-18.4-17.6-4.9-.2-9.3 1.5-12.8 4.3-1.2 1-2.9 1.3-4.4.6l-18-8.1c-1.5-.7-2.5-2.2-2.5-3.9V5.1c0-4 4.4-6.4 7.8-4.3l87.3 54.9c3.3 2 3.3 6.6.1 8.6zM154.1 64.8c8.7-1.8 11.5-8.1 11.5-14.4 0-7.9-5.7-15.1-16.4-15.1-7.3 0-14.5-.1-21.7-.1V81h8.6V65.7h8.3l12 13.8c.9 1 2.1 1.5 3.4 1.5h8.2v-.6l-13.9-15.6zm-18-6.9V43.3h13.1c5.4 0 7.8 3.7 7.8 7.3 0 3.7-2.3 7.3-7.8 7.3h-13.1zM170.9 48.7V81h8V48.7h-8zm-.7-9c0 6.2 9.4 6.2 9.4 0s-9.4-6.2-9.4 0zM217 64c0-3.5-.9-6.7-3.4-9.5l3.6-4.6-5.9-4.4-3.2 4c-2.2-1.5-4.8-1.8-7.4-1.8-9 0-16.3 6.3-16.3 16.3 0 10.1 6.3 16.2 16.3 16.2 4 0 8.2 2 8.2 6.5 0 4.4-3.6 6.9-8.2 6.9s-8.4-2.8-8.4-6.9h-7.9c0 8.7 7 14.4 16.3 14.4s16.1-5.5 16.1-14.4c0-4.1-1.3-8-6.7-10.7 5.4-2.3 6.9-8 6.9-12zm-16.2 9.6c-5.3 0-9.7-4.4-9.7-9.7 0-5.4 4.3-9.7 9.7-9.7 5.3 0 9.7 4.3 9.7 9.7 0 5.3-4.4 9.7-9.7 9.7zM258.8 48.3c-4.2 0-7.9 1.3-10.8 5.9-1.8-4.4-5.7-6-9.5-6-3.1 0-6.8 1.2-8.5 4.4l-.6-3.9H222V81h8V63.7c0-4.3 2.5-8.1 6.9-8.1s6.6 3.8 6.6 8.1V81h8V63.7c0-4.3 2.7-8 7-8s6.1 3.6 6.1 7.8V81h8V63.6c-.1-9.7-4.6-15.3-13.8-15.3z"/><path class="st1" d="M301.4 65.7c-.6 2.6-3.3 5.5-5.9 7-4.8 2.9-9.3 2.2-11.8-1l21.6-12.9c-5.7-12-14.9-14.3-24.1-8.8-5.8 3.5-8.7 8.6-8.7 14.1 0 3 .9 6.1 2.7 9.1 5.3 8.9 14.5 11.4 24 5.7 4.2-2.5 8.1-6.8 9.2-11.6l-7-1.6zM285 55.9c3.9-2.3 7.8-2.2 10.4 1.1l-14.9 8.9c-1.1-4.2.8-7.8 4.5-10z"/><g><path class="st1" d="M205.1 63.9c0 2.4-1.9 4.3-4.3 4.3s-4.3-1.9-4.3-4.3 1.9-4.3 4.3-4.3c2.4-.1 4.3 1.9 4.3 4.3z"/></g></svg>