<?xml version="1.0" encoding="utf-8"?>
<!-- Generator: Adobe Illustrator 19.0.0, SVG Export Plug-In . SVG Version: 6.00 Build 0)  -->
<svg version="1.1" id="Layer_1" xmlns="http://www.w3.org/2000/svg" xmlns:xlink="http://www.w3.org/1999/xlink" x="0px" y="0px"
	 viewBox="0 0 120 120" style="enable-background:new 0 0 120 120;" xml:space="preserve">
<style type="text/css">
	.st0{fill:#F6FAFB;}
</style>
<path id="XMLID_26_" class="st0" d="M73.6,9.1C71.6,3.8,66.4,0,60.4,0S49.3,3.8,47.3,9.1c-0.6,1.6-0.9,3.2-0.9,5
	c0,0.8,0.1,1.6,0.2,2.3c1.1,6.7,6.9,11.8,13.9,11.8s12.8-5.1,13.9-11.8c0.1-0.8,0.2-1.5,0.2-2.3C74.5,12.3,74.2,10.6,73.6,9.1z
	 M60.4,19.9c-2.4,0-4.5-1.5-5.4-3.5c-0.3-0.7-0.5-1.5-0.5-2.3c0-2.1,1.1-4,2.8-5c0.9-0.5,1.9-0.8,3-0.8s2.1,0.3,3,0.8
	c1.7,1,2.8,2.9,2.8,5c0,0.8-0.2,1.6-0.5,2.3C64.9,18.5,62.8,19.9,60.4,19.9z"/>
<path id="XMLID_8_" class="st0" d="M80.7,16.4v15.4H40.1V16.4h14.9c0.9,2.1,3,3.5,5.4,3.5s4.5-1.5,5.4-3.5H80.7z"/>
<g id="XMLID_12_">
	<path id="XMLID_20_" class="st0" d="M93.8,16.1c3.5,0,6.4,2.9,6.4,6.4v84.1c0,3.5-2.9,6.4-6.4,6.4H27.1c-3.5,0-6.4-2.9-6.4-6.4
		V22.5c0-3.5,2.9-6.4,6.4-6.4h20.7c0.2,1.1,0.5,2.1,0.9,3.1c2,4.7,6.7,7.7,11.8,7.7s9.8-3,11.8-7.8c0.4-1,0.7-2,0.9-3.1H93.8
		 M93.8,9.1H63.4c1.7,1,2.8,2.9,2.8,5c0,0.8-0.2,1.6-0.5,2.3c-0.9,2.1-3,3.5-5.4,3.5s-4.5-1.5-5.4-3.5c-0.3-0.7-0.5-1.5-0.5-2.3
		c0-2.1,1.1-4,2.8-5H27.1c-7.4,0-13.4,6-13.4,13.4v84.1c0,7.4,6,13.4,13.4,13.4h66.8c7.4,0,13.4-6,13.4-13.4V22.5
		C107.2,15.1,101.2,9.1,93.8,9.1L93.8,9.1z"/>
</g>
<path id="XMLID_1_" class="st0" d="M82.3,53.7H39.7c-1.4,0-2.5-1.1-2.5-2.5v-1.5c0-1.4,1.1-2.5,2.5-2.5h42.6c1.4,0,2.5,1.1,2.5,2.5
	v1.5C84.8,52.6,83.7,53.7,82.3,53.7z"/>
<path id="XMLID_5_" class="st0" d="M82.3,72.5H39.7c-1.4,0-2.5-1.1-2.5-2.5v-1.5c0-1.4,1.1-2.5,2.5-2.5h42.6c1.4,0,2.5,1.1,2.5,2.5
	V70C84.8,71.4,83.7,72.5,82.3,72.5z"/>
<path id="XMLID_7_" class="st0" d="M82.3,91.4H39.7c-1.4,0-2.5-1.1-2.5-2.5v-1.5c0-1.4,1.1-2.5,2.5-2.5h42.6c1.4,0,2.5,1.1,2.5,2.5
	v1.5C84.8,90.2,83.7,91.4,82.3,91.4z"/>
</svg>
