<?xml version="1.0" encoding="utf-8"?>
<!-- Generator: Adobe Illustrator 19.0.0, SVG Export Plug-In . SVG Version: 6.00 Build 0)  -->
<svg version="1.1" id="Layer_1" xmlns="http://www.w3.org/2000/svg" xmlns:xlink="http://www.w3.org/1999/xlink" x="0px" y="0px"
	 viewBox="0 0 120 120" style="enable-background:new 0 0 120 120;" xml:space="preserve">
<style type="text/css">
	.st0{fill:#F6FAFB;}
</style>
<path id="XMLID_1_" class="st0" d="M112,119.5H8c-4.4,0-8-3.6-8-8v0c0-4.4,3.6-8,8-8H112c4.4,0,8,3.6,8,8v0
	C120,115.9,116.4,119.5,112,119.5z"/>
<path id="XMLID_3_" class="st0" d="M15.9,80.8v30.8c0,4.4-3.6,8-8,8h0c-4.4,0-8-3.6-8-8l0-30.8c0-4.4,3.6-8,8-8h0
	C12.4,72.8,15.9,76.4,15.9,80.8z"/>
<path id="XMLID_4_" class="st0" d="M120,80.8v30.8c0,4.4-3.6,8-8,8h0c-4.4,0-8-3.6-8-8V80.8c0-4.4,3.6-8,8-8h0
	C116.4,72.8,120,76.4,120,80.8z"/>
<path id="XMLID_5_" class="st0" d="M68,57.4V8.8c0-4.4-3.6-8-8-8h0c-4.4,0-8,3.6-8,8v48.6c0,4.4,3.6,8,8,8h0
	C64.4,65.4,68,61.8,68,57.4z"/>
<path id="XMLID_7_" class="st0" d="M54.4,79.6l-24-24c-3.1-3.1-3.1-8.2,0-11.3l0,0c3.1-3.1,8.2-3.1,11.3,0l24,24
	c3.1,3.1,3.1,8.2,0,11.3l0,0C62.5,82.7,57.5,82.7,54.4,79.6z"/>
<path id="XMLID_6_" class="st0" d="M65.6,79.6l24-24c3.1-3.1,3.1-8.2,0-11.3l0,0c-3.1-3.1-8.2-3.1-11.3,0l-24,24
	c-3.1,3.1-3.1,8.2,0,11.3l0,0C57.5,82.7,62.5,82.7,65.6,79.6z"/>
</svg>
