<?xml version="1.0" encoding="utf-8"?>
<!-- Generator: Adobe Illustrator 19.0.0, SVG Export Plug-In . SVG Version: 6.00 Build 0)  -->
<svg version="1.1" id="Layer_1" xmlns="http://www.w3.org/2000/svg" xmlns:xlink="http://www.w3.org/1999/xlink" x="0px" y="0px"
	 viewBox="0 0 120 120" style="enable-background:new 0 0 120 120;" xml:space="preserve">
<style type="text/css">
	.st0{fill:#F6FAFB;}
</style>
<g id="XMLID_3_">
	<path id="XMLID_4_" class="st0" d="M41.5,67.3H16.8v29.3H0V23.5h44.6l1.9,13.1H16.8v17.6h22.7L41.5,67.3z"/>
	<path id="XMLID_6_" class="st0" d="M84.5,23.4c5.5,0,10.4,0.8,14.9,2.5c4.5,1.7,8,4.3,10.7,7.8c2.7,3.5,4,8,4,13.5
		c0,4.5-1,8.3-3.1,11.6c-2.1,3.3-4.7,5.8-8,7.7l17,30.2h-19L87.5,71.2c-1.1,0.1-2.3,0.1-3.3,0.1c-1.1,0-2.2-0.1-3.2-0.1h-6.6v25.4
		H57.5V23.4H84.5z M74.3,36.9v20.8h9.9c2.4,0,4.5-0.4,6.3-1.2c1.8-0.8,3.3-1.9,4.4-3.4c1.1-1.5,1.6-3.4,1.6-5.6c0-2.4-0.5-4.5-1.5-6
		c-1-1.6-2.4-2.7-4.3-3.4c-1.8-0.7-4.1-1.1-6.8-1.1H74.3z"/>
</g>
</svg>
