<?xml version="1.0" encoding="utf-8"?>
<!-- Generator: Adobe Illustrator 19.0.0, SVG Export Plug-In . SVG Version: 6.00 Build 0)  -->
<svg version="1.1" id="Layer_1" xmlns="http://www.w3.org/2000/svg" xmlns:xlink="http://www.w3.org/1999/xlink" x="0px" y="0px"
	 viewBox="0 0 120 120" style="enable-background:new 0 0 120 120;" xml:space="preserve">
<style type="text/css">
	.st0{fill:#F6FAFB;}
</style>
<circle id="XMLID_1_" class="st0" cx="73.7" cy="52.9" r="25.2"/>
<path id="XMLID_8_" class="st0" d="M95.3,5.6c-12.1-5.4-25.6-5.8-38-1.1C53.4,6,49.7,8,46.4,10.3c-4.1,2.9-3.5,9.2,1.1,11.3l0,0
	c2.1,0.9,4.5,0.7,6.4-0.6c2.4-1.7,5.1-3.1,8-4.2c9.2-3.5,19.1-3.2,28.1,0.8c1.7,0.7,3.2,1.6,4.7,2.5c2.6,1.6,6,1.3,8.1-0.9l0,0
	c2.9-3,2.3-7.9-1.2-10.1C99.7,7.7,97.5,6.6,95.3,5.6z"/>
<path id="XMLID_2_" class="st0" d="M72,73.2l16.5-6.3l16,42c1.5,3.9-0.5,8.2-4.3,9.7l-2.5,1c-3.9,1.5-8.2-0.5-9.7-4.3L72,73.2z"/>
<path id="XMLID_4_" class="st0" d="M6.9,26.9L8,24.4c1.7-3.8,6.1-5.5,9.9-3.8l41,18.3L51.7,55l-41-18.3C6.9,35,5.2,30.6,6.9,26.9z"
	/>
<path id="XMLID_3_" class="st0" d="M99.6,4.8l5.1,21.7l6.8-1.6c1.3-0.3,2.1-1.6,1.8-2.9l-4.5-19.3c-0.4-1.8-2.3-3-4.1-2.5l-2.5,0.6
	C100.3,1.1,99.1,3,99.6,4.8z"/>
<path id="XMLID_6_" class="st0" d="M92.2,29.4l19.3-4.5c1.3-0.3,2.1-1.6,1.8-2.9l-1.6-6.8L90,20.3c-1.8,0.4-3,2.3-2.5,4.1l0.6,2.5
	C88.5,28.7,90.3,29.8,92.2,29.4z"/>
</svg>
