<?xml version="1.0" encoding="utf-8"?>
<!-- Generator: Adobe Illustrator 19.0.0, SVG Export Plug-In . SVG Version: 6.00 Build 0)  -->
<svg version="1.1" id="Layer_1" xmlns="http://www.w3.org/2000/svg" xmlns:xlink="http://www.w3.org/1999/xlink" x="0px" y="0px"
	 viewBox="0 0 120 120" style="enable-background:new 0 0 120 120;" xml:space="preserve">
<style type="text/css">
	.st0{fill:#F6FAFB;}
</style>
<circle id="XMLID_1_" class="st0" cx="84.6" cy="34.1" r="26.1"/>
<path id="XMLID_2_" class="st0" d="M82.9,55.1l17-6.5l16.6,43.6c1.5,3.9-0.5,8.2-4.3,9.7l-3.1,1.2c-3.9,1.5-8.2-0.5-9.7-4.3
	L82.9,55.1z"/>
<path id="XMLID_4_" class="st0" d="M15.5,7.4l1.3-3c1.8-3.8,6.2-5.4,10-3.8l42.6,19.1l-7.5,16.6l-42.6-19
	C15.5,15.6,13.8,11.2,15.5,7.4z"/>
<path id="XMLID_9_" class="st0" d="M56.6,71.3v44.4H18.7V71.3H56.6 M61,66.9H14.3v50c0,1.7,1.4,3.1,3.1,3.1h40.5
	c1.7,0,3.1-1.4,3.1-3.1V66.9L61,66.9z"/>
<path id="XMLID_5_" class="st0" d="M26.6,108.2h0.9c0.9,0,1.7-0.8,1.7-1.7V80.4c0-0.9-0.8-1.7-1.7-1.7h-0.9c-0.9,0-1.7,0.8-1.7,1.7
	v26.1C24.9,107.4,25.7,108.2,26.6,108.2z"/>
<path id="XMLID_7_" class="st0" d="M37.2,108.2h0.9c0.9,0,1.7-0.8,1.7-1.7V80.4c0-0.9-0.8-1.7-1.7-1.7h-0.9c-0.9,0-1.7,0.8-1.7,1.7
	v26.1C35.5,107.4,36.3,108.2,37.2,108.2z"/>
<path id="XMLID_10_" class="st0" d="M47.8,108.2h0.9c0.9,0,1.7-0.8,1.7-1.7V80.4c0-0.9-0.8-1.7-1.7-1.7h-0.9c-0.9,0-1.7,0.8-1.7,1.7
	v26.1C46.1,107.4,46.9,108.2,47.8,108.2z"/>
<path id="XMLID_8_" class="st0" d="M9.4,68.6v0.7c0,1,0.8,1.8,1.8,1.8h53c1,0,1.8-0.8,1.8-1.8v-0.7c0-1-0.8-1.8-1.8-1.8h-53
	C10.2,66.9,9.4,67.7,9.4,68.6z"/>
<path id="XMLID_11_" class="st0" d="M43.6,62.7l2.6,4.2H29l2.6-4.2H43.6 M46,58.3h-2.4h-12h-2.5l-1.3,2.1l-2.6,4.2l-4.1,6.7H29h17.2
	h8L50,64.5l-2.6-4.2L46,58.3L46,58.3z"/>
</svg>
