<?xml version="1.0" encoding="utf-8"?>
<!-- Generator: Adobe Illustrator 19.0.0, SVG Export Plug-In . SVG Version: 6.00 Build 0)  -->
<svg version="1.1" id="Layer_1" xmlns="http://www.w3.org/2000/svg" xmlns:xlink="http://www.w3.org/1999/xlink" x="0px" y="0px"
	 viewBox="0 0 120 120" style="enable-background:new 0 0 120 120;" xml:space="preserve">
<style type="text/css">
	.st0{fill:#F6FAFB;}
</style>
<circle id="XMLID_1_" class="st0" cx="79.3" cy="68.4" r="17.8"/>
<path id="XMLID_2_" class="st0" d="M70.6,79.9l12.2,2.5l-6.6,31.2c-0.6,2.8-3.3,4.5-6.1,4l-2.2-0.4c-2.8-0.6-4.5-3.3-4-6.1
	L70.6,79.9z"/>
<path id="XMLID_3_" class="st0" d="M111.4,41.2c2.4-1.3,5.6-0.4,7,2.1l1.1,2c1.3,2.4,0.4,5.6-2.1,7l-28,15.3l-6-10.9L111.4,41.2z"/>
<path class="st0" d="M12.7,42.2l-1.1,2.9c-0.8,2.1,0.2,4.4,2.3,5.2L46.3,63c2.1,0.8,4.4-0.2,5.2-2.3l1.1-2.9
	c0.8-2.1-0.2-4.4-2.3-5.2L17.9,39.9C15.8,39.1,13.5,40.1,12.7,42.2z"/>
<path class="st0" d="M5.3,35.5l-2.9,1.3c-2,0.9-2.9,3.2-2.1,5.3l11.1,25.3c0.9,2,3.2,2.9,5.3,2.1l2.9-1.3c2-0.9,2.9-3.2,2.1-5.3
	L10.5,37.6C9.6,35.6,7.3,34.7,5.3,35.5z"/>
<path class="st0" d="M1.6,44.9l-1.3-2.9c-0.9-2,0-4.4,2.1-5.3l25.3-11.1c2-0.9,4.4,0,5.3,2.1l1.3,2.9c0.9,2,0,4.4-2.1,5.3L6.8,47
	C4.8,47.9,2.5,47,1.6,44.9z"/>
<path class="st0" d="M64.3,10.2l-0.6,0.1c-2.1,0.4-3.5,2.5-3,4.6l5,24.1c0.4,2.1,2.5,3.5,4.6,3l0.6-0.1c2.1-0.4,3.5-2.5,3-4.6
	l-5-24.1C68.5,11.1,66.5,9.7,64.3,10.2z"/>
<path class="st0" d="M65.6,2l-0.5-0.3c-1.8-1.2-4.2-0.7-5.4,1.1l-10.5,16c-1.2,1.8-0.7,4.2,1.1,5.4l0.5,0.3c1.8,1.2,4.2,0.7,5.4-1.1
	l10.5-16C67.9,5.6,67.4,3.2,65.6,2z"/>
<path class="st0" d="M59.3,3.3l0.3-0.5c1.2-1.8,3.6-2.3,5.4-1.1l16,10.5c1.8,1.2,2.3,3.6,1.1,5.4l-0.3,0.5c-1.2,1.8-3.6,2.3-5.4,1.1
	l-16-10.5C58.6,7.5,58.1,5.1,59.3,3.3z"/>
</svg>
