<?xml version="1.0" encoding="utf-8"?>
<!-- Generator: Adobe Illustrator 19.0.0, SVG Export Plug-In . SVG Version: 6.00 Build 0)  -->
<svg version="1.1" id="Layer_1" xmlns="http://www.w3.org/2000/svg" xmlns:xlink="http://www.w3.org/1999/xlink" x="0px" y="0px"
	 viewBox="0 0 120 120" style="enable-background:new 0 0 120 120;" xml:space="preserve">
<style type="text/css">
	.st0{fill:#F6FAFB;}
</style>
<circle id="XMLID_1_" class="st0" cx="82.4" cy="35.9" r="27.4"/>
<path id="XMLID_2_" class="st0" d="M80.6,58l17.9-6.8l17.6,46.2c1.5,3.9-0.5,8.2-4.3,9.7l-4,1.5c-3.9,1.5-8.2-0.5-9.7-4.3L80.6,58z"
	/>
<path id="XMLID_4_" class="st0" d="M9.6,8.2l1.7-3.9c1.7-3.8,6.1-5.5,9.9-3.8l45.2,20.2l-7.8,17.5L13.4,18.1
	C9.6,16.4,7.9,12,9.6,8.2z"/>
<polygon id="XMLID_6_" class="st0" points="36.9,118.3 51.2,65.3 3.3,90.1 16.5,97.6 4.6,111.4 14.5,120.1 27.1,105.9 "/>
</svg>
