<?xml version="1.0" encoding="utf-8"?>
<!-- Generator: Adobe Illustrator 19.0.0, SVG Export Plug-In . SVG Version: 6.00 Build 0)  -->
<svg version="1.1" id="Layer_1" xmlns="http://www.w3.org/2000/svg" xmlns:xlink="http://www.w3.org/1999/xlink" x="0px" y="0px"
	 viewBox="0 0 120 120" style="enable-background:new 0 0 120 120;" xml:space="preserve">
<style type="text/css">
	.st0{fill:#F6FAFB;}
</style>
<g id="XMLID_1_">
	<path id="XMLID_19_" class="st0" d="M60,8c11.2,0,20.3,9.1,20.3,20.3S71.2,48.6,60,48.6s-20.3-9.1-20.3-20.3S48.8,8,60,8 M60,0
		C44.4,0,31.7,12.7,31.7,28.3S44.4,56.6,60,56.6s28.3-12.7,28.3-28.3S75.6,0,60,0L60,0z"/>
</g>
<path id="XMLID_2_" class="st0" d="M53.1,53.8v61c0,2.8,2.3,5.1,5.1,5.1h3.6c2.8,0,5.1-2.3,5.1-5.1v-61
	C66.9,53.8,53.1,53.8,53.1,53.8z"/>
<path id="XMLID_4_" class="st0" d="M58.2,120H79c2.8,0,5.1-2.3,5.1-5.1v-3.6c0-2.8-2.3-5.1-5.1-5.1H58.2c-2.8,0-5.1,2.3-5.1,5.1v3.6
	C53.1,117.7,55.4,120,58.2,120z"/>
<path id="XMLID_6_" class="st0" d="M58.2,92.3H79c2.8,0,5.1-2.3,5.1-5.1v-3.6c0-2.8-2.3-5.1-5.1-5.1H58.2c-2.8,0-5.1,2.3-5.1,5.1
	v3.6C53.1,90,55.4,92.3,58.2,92.3z"/>
<path id="XMLID_5_" class="st0" d="M48.8,31.6h22.3c1.2,0,2.1-0.9,2.1-2.1V27c0-1.2-0.9-2.1-2.1-2.1H48.8c-1.2,0-2.1,0.9-2.1,2.1
	v2.5C46.7,30.7,47.7,31.6,48.8,31.6z"/>
<path id="XMLID_7_" class="st0" d="M56.7,17.2v22.3c0,1.2,0.9,2.1,2.1,2.1h2.5c1.2,0,2.1-0.9,2.1-2.1V17.2c0-1.2-0.9-2.1-2.1-2.1
	h-2.5C57.6,15.1,56.7,16,56.7,17.2z"/>
</svg>
