<?xml version="1.0" encoding="utf-8"?>
<!-- Generator: Adobe Illustrator 19.0.0, SVG Export Plug-In . SVG Version: 6.00 Build 0)  -->
<svg version="1.1" id="Layer_1" xmlns="http://www.w3.org/2000/svg" xmlns:xlink="http://www.w3.org/1999/xlink" x="0px" y="0px"
	 viewBox="0 0 120 120" style="enable-background:new 0 0 120 120;" xml:space="preserve">
<style type="text/css">
	.st0{fill:#F6FAFB;}
</style>
<path id="XMLID_1_" class="st0" d="M60.8,75.3L60.8,75.3c-3.9,0-7.1-3.2-7.1-7.1v-45c0-3.9,3.2-7.1,7.1-7.1l0,0
	c3.9,0,7.1,3.2,7.1,7.1v45C67.9,72.1,64.7,75.3,60.8,75.3z"/>
<path id="XMLID_3_" class="st0" d="M38.1,29.8L38.1,29.8c-2.8-2.8-2.8-7.3,0-10.1L55.7,2.1c2.8-2.8,7.3-2.8,10.1,0l0,0
	c2.8,2.8,2.8,7.3,0,10.1L48.2,29.8C45.4,32.6,40.9,32.6,38.1,29.8z"/>
<path id="XMLID_4_" class="st0" d="M83.4,29.8L83.4,29.8c-2.8,2.8-7.3,2.8-10.1,0L55.7,12.2c-2.8-2.8-2.8-7.3,0-10.1l0,0
	c2.8-2.8,7.3-2.8,10.1,0l17.6,17.6C86.2,22.5,86.2,27,83.4,29.8z"/>
<path id="XMLID_7_" class="st0" d="M44.8,60L44.8,60c0,3.9,3.2,7.1,7.1,7.1h45c3.9,0,7.1-3.2,7.1-7.1l0,0c0-3.9-3.2-7.1-7.1-7.1h-45
	C47.9,52.9,44.8,56.1,44.8,60z"/>
<path id="XMLID_6_" class="st0" d="M90.2,82.7L90.2,82.7c2.8,2.8,7.3,2.8,10.1,0L117.9,65c2.8-2.8,2.8-7.3,0-10.1l0,0
	c-2.8-2.8-7.3-2.8-10.1,0L90.2,72.6C87.4,75.3,87.4,79.9,90.2,82.7z"/>
<path id="XMLID_5_" class="st0" d="M90.2,37.3L90.2,37.3c-2.8,2.8-2.8,7.3,0,10.1L107.8,65c2.8,2.8,7.3,2.8,10.1,0l0,0
	c2.8-2.8,2.8-7.3,0-10.1l-17.6-17.6C97.5,34.6,93,34.6,90.2,37.3z"/>
<path id="XMLID_10_" class="st0" d="M60.7,44.8L60.7,44.8c3.9,0,7.1,3.2,7.1,7.1v45c0,3.9-3.2,7.1-7.1,7.1l0,0
	c-3.9,0-7.1-3.2-7.1-7.1v-45C53.6,47.9,56.8,44.8,60.7,44.8z"/>
<path id="XMLID_9_" class="st0" d="M83.4,90.2L83.4,90.2c2.8,2.8,2.8,7.3,0,10.1l-17.6,17.6c-2.8,2.8-7.3,2.8-10.1,0l0,0
	c-2.8-2.8-2.8-7.3,0-10.1l17.6-17.6C76.1,87.4,80.6,87.4,83.4,90.2z"/>
<path id="XMLID_8_" class="st0" d="M38.1,90.2L38.1,90.2c2.8-2.8,7.3-2.8,10.1,0l17.6,17.6c2.8,2.8,2.8,7.3,0,10.1l0,0
	c-2.8,2.8-7.3,2.8-10.1,0l-17.6-17.6C35.3,97.5,35.3,93,38.1,90.2z"/>
<path id="XMLID_13_" class="st0" d="M75.3,60L75.3,60c0-3.9-3.2-7.1-7.1-7.1h-45c-3.9,0-7.1,3.2-7.1,7.1l0,0c0,3.9,3.2,7.1,7.1,7.1
	h45C72.1,67.1,75.3,63.9,75.3,60z"/>
<path id="XMLID_12_" class="st0" d="M29.8,37.3L29.8,37.3c-2.8-2.8-7.3-2.8-10.1,0L2.1,55c-2.8,2.8-2.8,7.3,0,10.1l0,0
	c2.8,2.8,7.3,2.8,10.1,0l17.6-17.6C32.6,44.7,32.6,40.1,29.8,37.3z"/>
<path id="XMLID_11_" class="st0" d="M29.8,82.7L29.8,82.7c2.8-2.8,2.8-7.3,0-10.1L12.2,55c-2.8-2.8-7.3-2.8-10.1,0l0,0
	c-2.8,2.8-2.8,7.3,0,10.1l17.6,17.6C22.5,85.4,27,85.4,29.8,82.7z"/>
</svg>
