<?xml version="1.0" encoding="utf-8"?>
<!-- Generator: Adobe Illustrator 19.0.0, SVG Export Plug-In . SVG Version: 6.00 Build 0)  -->
<svg version="1.1" id="Layer_1" xmlns="http://www.w3.org/2000/svg" xmlns:xlink="http://www.w3.org/1999/xlink" x="0px" y="0px"
	 viewBox="0 0 120 120" style="enable-background:new 0 0 120 120;" xml:space="preserve">
<style type="text/css">
	.st0{fill:#3D4247;}
	.st1{fill:#772FEA;}
</style>
<path class="st0" d="M52.6,80.3l4.2,11.3c0.7,1.9,0,4-1.7,5.1l-35.8,22.5c-3.4,2.1-7.8-0.3-7.8-4.3v-59c0-3.1,3.1-5.1,5.9-3.9
	l9.6,4.3c1.4,0.6,2.3,2,2.3,3.5c0,0.5,0.1,0.9,0.1,1.4c1.1,9.5,9.5,16.5,19.1,16.5h0C50.5,77.6,52,78.7,52.6,80.3z"/>
<path class="st1" d="M106.7,64.3L73.7,85c-2.3,1.4-5.3,0.4-6.2-2.1l-3.7-9.8c-0.5-1.3-0.3-2.7,0.5-3.8c2.4-3.5,3.7-7.7,3.3-12.3
	c-0.7-9.6-8.7-17.3-18.4-17.6c-4.9-0.2-9.3,1.5-12.8,4.3c-1.2,1-2.9,1.3-4.4,0.6l-18-8.1c-1.5-0.7-2.5-2.2-2.5-3.9V5.1
	c0-4,4.4-6.4,7.8-4.3l87.3,54.9C109.9,57.7,109.9,62.3,106.7,64.3z"/>
</svg>
