<?xml version="1.0" encoding="utf-8"?>
<!-- Generator: Adobe Illustrator 19.0.0, SVG Export Plug-In . SVG Version: 6.00 Build 0)  -->
<svg version="1.1" id="Layer_1" xmlns="http://www.w3.org/2000/svg" xmlns:xlink="http://www.w3.org/1999/xlink" x="0px" y="0px"
	 viewBox="0 0 120 120" style="enable-background:new 0 0 120 120;" xml:space="preserve">
<style type="text/css">
	.st0{fill:#F6FAFB;}
</style>
<path id="XMLID_1_" class="st0" d="M117,67.1l-4.6,4.6c-3.9,3.9-10.2,3.9-14.1,0L55.8,29.3c-3.9-3.9-3.9-10.2,0-14.1l4.6-4.6
	c3.9-3.9,10.2-3.9,14.1,0L117,53C120.9,56.9,120.9,63.2,117,67.1z"/>
<path id="XMLID_3_" class="st0" d="M112.4,48.2l4.6,4.6c3.9,3.9,3.9,10.2,0,14.1l-42.4,42.4c-3.9,3.9-10.2,3.9-14.1,0l-4.6-4.6
	c-3.9-3.9-3.9-10.2,0-14.1l42.4-42.4C102.1,44.3,108.5,44.3,112.4,48.2z"/>
<path id="XMLID_5_" class="st0" d="M64.2,67.1l-4.6,4.6c-3.9,3.9-10.2,3.9-14.1,0L3,29.3c-3.9-3.9-3.9-10.2,0-14.1l4.6-4.6
	c3.9-3.9,10.2-3.9,14.1,0L64.2,53C68.1,56.9,68.1,63.2,64.2,67.1z"/>
<path id="XMLID_4_" class="st0" d="M59.6,48.2l4.6,4.6c3.9,3.9,3.9,10.2,0,14.1l-42.4,42.4c-3.9,3.9-10.2,3.9-14.1,0L3,104.8
	c-3.9-3.9-3.9-10.2,0-14.1l42.4-42.4C49.3,44.3,55.6,44.3,59.6,48.2z"/>
</svg>
