<?xml version="1.0" encoding="utf-8"?>
<!-- Generator: Adobe Illustrator 19.0.0, SVG Export Plug-In . SVG Version: 6.00 Build 0)  -->
<svg version="1.1" id="Layer_1" xmlns="http://www.w3.org/2000/svg" xmlns:xlink="http://www.w3.org/1999/xlink" x="0px" y="0px"
	 viewBox="0 0 120 120" style="enable-background:new 0 0 120 120;" xml:space="preserve">
<style type="text/css">
	.st0{fill:#F6FAFB;}
</style>
<path id="XMLID_1_" class="st0" d="M51.5,38.6C41,45.1,39.9,58,39.8,59.5c-2.4-3.7-6.6-5.3-10.1-4.2c-2.4,0.8-5.1,3-5.3,6.2
	c-0.2,3.9,3.5,6.3,4.1,6.6c3.1,1.9,7.3,1.6,10.9-0.7c1.7,3.1,3.6,4.6,5.1,5.5c6,3.5,12.8,0.6,16.6,4.9c0.5,0.5,0.9,1,1,1.8
	c0.4,3.1-5.6,4.6-5.7,8.2c-0.1,2.5,2.7,4.2,2.9,4.3c2.2,1.4,4.2,0.4,7.1,0.4c5.1,0.1,8.9,3.1,10.7,4.4c5,3.9,3.8,7,9,10.7
	c0.7,0.5,5.8,4,8.3,2.2c1.8-1.3,1.3-4.8,1.2-5.6c-0.2-1.3-0.9-4.8-6.4-9.4c-2.6-2.2-7.8-5.9-16.1-7.8c6.5-2.9,10.8-9.2,11.2-16.3
	c0.4-6.9-3-13.4-8.8-17.1c4.6,0.5,7.2,2.4,8.3,3.4c5.8,5.1,6.8,15.5,1.8,25.6c2.7-1.9,7.6-5.9,11.1-12.9c4.3-8.5,4-16.4,3.6-19.7
	c8.9,3.8,16.6,3.8,18.7,0.7c1.1-1.7,1.1-5.1,1.1-6c0-0.8,0-3-0.9-5.6c-0.2-0.6-1.4-4.4-4.2-7.2c-5.5-5.7-14.3-4.5-15.4-4.4
	c-2.7-3.1-8.4-8.7-17.1-11.2c-11.5-3.3-25.3-0.4-25.7,3.1c-0.2,1.5,2.1,3,3.2,3.6c7.9,4.9,15.8-1.7,27.1,1.2
	c2.2,0.6,5.6,1.8,9.4,4.6c-0.9,0.8-2.1,2-3.2,3.8c-1.9,3.1-1.4,4.8-2.9,6.2c-0.8,0.8-2.6,1.7-8.8,0.5c-6.5-1.3-8.4-3-12.1-4
	C60.6,33,52.3,38.1,51.5,38.6z"/>
<path id="XMLID_3_" class="st0" d="M101.9,25.4c0.3-0.4-4.7-6.8-13-11.4c-0.7-0.4-13.8-7.3-22.7-2.9c-1,0.5-1.5,0.9-1.5,1.3
	c0.2,1.7,11.3-0.8,22.2,3.1C96.5,19,101.6,25.8,101.9,25.4z"/>
<path id="XMLID_11_" class="st0" d="M61,28.2c-7.1,0.8-12.6,4.2-13.4,4.6c-3,1.9-5.4,4.2-7.3,6.7h-16c-2.8,0-5-2.2-5-5v-6.3H61z"/>
<path id="XMLID_10_" class="st0" d="M38.3,42.4c-1.8,3-3,6.1-3.8,8.8H5c-2.8,0-5-2.2-5-5v-3.8H38.3z"/>
<path id="XMLID_13_" class="st0" d="M20.4,61.2c-0.1,0.9,0.1,1.8,0.3,2.6h-7.9c-2.8,0-5-2.2-5-5v-2.7h15
	C21.4,57.5,20.5,59.2,20.4,61.2z"/>
</svg>
