<?xml version="1.0" encoding="utf-8"?>
<!-- Generator: Adobe Illustrator 19.0.0, SVG Export Plug-In . SVG Version: 6.00 Build 0)  -->
<svg version="1.1" id="Layer_1" xmlns="http://www.w3.org/2000/svg" xmlns:xlink="http://www.w3.org/1999/xlink" x="0px" y="0px"
	 viewBox="11.5 0 296.8 120" style="enable-background:new 11.5 0 296.8 120;" xml:space="preserve">
<style type="text/css">
	.st0{fill:#4F535B;}
	.st1{fill:#772FEA;}
</style>
<path class="st0" d="M52.6,80.3l4.2,11.3c0.7,1.9,0,4-1.7,5.1l-35.8,22.5c-3.4,2.1-7.8-0.3-7.8-4.3v-59c0-3.1,3.1-5.1,5.9-3.9
	l9.6,4.3c1.4,0.6,2.3,2,2.3,3.5c0,0.5,0.1,0.9,0.1,1.4c1.1,9.5,9.5,16.5,19.1,16.5l0,0C50.5,77.6,52,78.7,52.6,80.3z"/>
<path class="st1" d="M106.7,64.3L73.7,85c-2.3,1.4-5.3,0.4-6.2-2.1l-3.7-9.8c-0.5-1.3-0.3-2.7,0.5-3.8c2.4-3.5,3.7-7.7,3.3-12.3
	c-0.7-9.6-8.7-17.3-18.4-17.6c-4.9-0.2-9.3,1.5-12.8,4.3c-1.2,1-2.9,1.3-4.4,0.6l-18-8.1c-1.5-0.7-2.5-2.2-2.5-3.9V5.1
	c0-4,4.4-6.4,7.8-4.3l87.3,54.9C109.9,57.7,109.9,62.3,106.7,64.3z"/>
<g>
	<path class="st1" d="M154.1,64.8c8.7-1.8,11.5-8.1,11.5-14.4c0-7.9-5.7-15.1-16.4-15.1c-7.3,0-14.5-0.1-21.7-0.1V81h8.6V65.7h8.3
		l12,13.8c0.9,1,2.1,1.5,3.4,1.5h8.2v-0.6L154.1,64.8z M136.1,57.9V43.3h13.1c5.4,0,7.8,3.7,7.8,7.3c0,3.7-2.3,7.3-7.8,7.3H136.1z"
		/>
	<path class="st1" d="M170.9,48.7V81h8V48.7H170.9z M170.2,39.7c0,6.2,9.4,6.2,9.4,0S170.2,33.5,170.2,39.7z"/>
	<path class="st1" d="M217,64c0-3.5-0.9-6.7-3.4-9.5l3.6-4.6l-5.9-4.4l-3.2,4c-2.2-1.5-4.8-1.8-7.4-1.8c-9,0-16.3,6.3-16.3,16.3
		c0,10.1,6.3,16.2,16.3,16.2c4,0,8.2,2,8.2,6.5c0,4.4-3.6,6.9-8.2,6.9c-4.6,0-8.4-2.8-8.4-6.9h-7.9c0,8.7,7,14.4,16.3,14.4
		c9.3,0,16.1-5.5,16.1-14.4c0-4.1-1.3-8-6.7-10.7C215.5,73.7,217,68,217,64z M200.8,73.6c-5.3,0-9.7-4.4-9.7-9.7
		c0-5.4,4.3-9.7,9.7-9.7c5.3,0,9.7,4.3,9.7,9.7C210.5,69.2,206.1,73.6,200.8,73.6z"/>
	<path class="st1" d="M258.8,48.3c-4.2,0-7.9,1.3-10.8,5.9c-1.8-4.4-5.7-6-9.5-6c-3.1,0-6.8,1.2-8.5,4.4l-0.6-3.9h-7.4V81h8V63.7
		c0-4.3,2.5-8.1,6.9-8.1c4.4,0,6.6,3.8,6.6,8.1V81h8V63.7c0-4.3,2.7-8,7-8s6.1,3.6,6.1,7.8V81h8V63.6
		C272.5,53.9,268,48.3,258.8,48.3z"/>
	<path class="st1" d="M301.4,65.7c-0.6,2.6-3.3,5.5-5.9,7c-4.8,2.9-9.3,2.2-11.8-1l21.6-12.9c-5.7-12-14.9-14.3-24.1-8.8
		c-5.8,3.5-8.7,8.6-8.7,14.1c0,3,0.9,6.1,2.7,9.1c5.3,8.9,14.5,11.4,24,5.7c4.2-2.5,8.1-6.8,9.2-11.6L301.4,65.7z M285,55.9
		c3.9-2.3,7.8-2.2,10.4,1.1l-14.9,8.9C279.4,61.7,281.3,58.1,285,55.9z"/>
</g>
<g>
	<path class="st1" d="M205.1,63.9c0,2.4-1.9,4.3-4.3,4.3c-2.4,0-4.3-1.9-4.3-4.3c0-2.4,1.9-4.3,4.3-4.3
		C203.2,59.5,205.1,61.5,205.1,63.9z"/>
</g>
</svg>
