<?xml version="1.0" encoding="utf-8"?>
<!-- Generator: Adobe Illustrator 19.0.0, SVG Export Plug-In . SVG Version: 6.00 Build 0)  -->
<svg version="1.1" id="Layer_1" xmlns="http://www.w3.org/2000/svg" xmlns:xlink="http://www.w3.org/1999/xlink" x="0px" y="0px"
	 viewBox="0 0 120 120" style="enable-background:new 0 0 120 120;" xml:space="preserve">
<style type="text/css">
	.st0{fill:#F6FAFB;}
</style>
<path id="XMLID_3_" class="st0" d="M65.3,26.4H28.5c-9,0-16.3,7.3-16.3,16.3v60.9c0,9,7.3,16.3,16.3,16.3h36.9
	c9,0,16.3-7.3,16.3-16.3V42.7C81.6,33.7,74.3,26.4,65.3,26.4z M71.7,103.7c0,3.5-2.9,6.4-6.4,6.4H28.5c-3.5,0-6.4-2.9-6.4-6.4V42.7
	c0-3.5,2.9-6.4,6.4-6.4h36.9c3.5,0,6.4,2.9,6.4,6.4V103.7z"/>
<path id="XMLID_4_" class="st0" d="M91.5,0H54.7c-9,0-16.3,7.3-16.3,16.3V35h9.9V16.3c0-3.5,2.9-6.4,6.4-6.4h36.9
	c3.5,0,6.4,2.9,6.4,6.4v60.9c0,3.5-2.9,6.4-6.4,6.4H73.1v9.9h18.4c9,0,16.3-7.3,16.3-16.3V16.3C107.8,7.3,100.5,0,91.5,0z"/>
<path id="XMLID_1_" class="st0" d="M60.8,61.5H31.8c-1.3,0-2.4-1.1-2.4-2.4v-2c0-1.3,1.1-2.4,2.4-2.4h28.9c1.3,0,2.4,1.1,2.4,2.4v2
	C63.2,60.4,62.1,61.5,60.8,61.5z"/>
<path id="XMLID_6_" class="st0" d="M60.8,76.7H31.8c-1.3,0-2.4-1.1-2.4-2.4v-2c0-1.3,1.1-2.4,2.4-2.4h28.9c1.3,0,2.4,1.1,2.4,2.4v2
	C63.2,75.6,62.1,76.7,60.8,76.7z"/>
<path id="XMLID_8_" class="st0" d="M51,91.8H31.8c-1.3,0-2.4-1.1-2.4-2.4v-2c0-1.3,1.1-2.4,2.4-2.4H51c1.3,0,2.4,1.1,2.4,2.4v2
	C53.4,90.7,52.3,91.8,51,91.8z"/>
</svg>
