<svg version="1.1" id="Layer_1" xmlns="http://www.w3.org/2000/svg" x="0" y="0" viewBox="0 0 120 120" style="enable-background:new 0 0 120 120" xml:space="preserve"><style>.st0{fill:#f6fafb}</style><g id="XMLID_3_"><path id="XMLID_4_" class="st0" d="M41.5 67.3H16.8v29.3H0V23.5h44.6l1.9 13.1H16.8v17.6h22.7l2 13.1z"/><path id="XMLID_6_" class="st0" d="M84.5 23.4c5.5 0 10.4.8 14.9 2.5s8 4.3 10.7 7.8c2.7 3.5 4 8 4 13.5 0 4.5-1 8.3-3.1 11.6-2.1 3.3-4.7 5.8-8 7.7l17 30.2h-19L87.5 71.2c-1.1.1-2.3.1-3.3.1-1.1 0-2.2-.1-3.2-.1h-6.6v25.4H57.5V23.4h27zM74.3 36.9v20.8h9.9c2.4 0 4.5-.4 6.3-1.2 1.8-.8 3.3-1.9 4.4-3.4 1.1-1.5 1.6-3.4 1.6-5.6 0-2.4-.5-4.5-1.5-6-1-1.6-2.4-2.7-4.3-3.4-1.8-.7-4.1-1.1-6.8-1.1h-9.6z"/></g></svg>