<svg version="1.1" id="Layer_1" xmlns="http://www.w3.org/2000/svg" x="0" y="0" viewBox="0 0 120 120" style="enable-background:new 0 0 120 120" xml:space="preserve"><style>.st0{fill:#f6fafb}</style><circle id="XMLID_1_" class="st0" cx="33.4" cy="35.9" r="31.9"/><path class="st0" d="M75.5 6.5C35.2 8.9 2.7 41.3.2 81.6c-.6 10.1.6 19.9 3.4 28.9 1.5 5 7.5 7.1 11.9 4.3l3.8-2.4c3-1.9 4.3-5.6 3.4-9-1.7-6-2.6-12.3-2.3-18.9 1.1-31.7 27.4-57.4 59.1-57.9 9.7-.2 18.9 2 27 6 3.7 1.8 8.1.4 10.2-3.1l2.2-3.7c2.4-4 .9-9.3-3.4-11.3-12-5.9-25.6-8.8-40-8z"/></svg>