<svg version="1.1" id="Layer_1" xmlns="http://www.w3.org/2000/svg" x="0" y="0" viewBox="0 0 120 120" style="enable-background:new 0 0 120 120" xml:space="preserve"><style>.st0{fill:#f6fafb}</style><circle id="XMLID_1_" class="st0" cx="84.6" cy="34.1" r="26.1"/><path id="XMLID_2_" class="st0" d="m82.9 55.1 17-6.5 16.6 43.6c1.5 3.9-.5 8.2-4.3 9.7l-3.1 1.2c-3.9 1.5-8.2-.5-9.7-4.3L82.9 55.1z"/><path id="XMLID_4_" class="st0" d="m15.5 7.4 1.3-3C18.6.6 23-1 26.8.6l42.6 19.1-7.5 16.6-42.6-19c-3.8-1.7-5.5-6.1-3.8-9.9z"/><path id="XMLID_9_" class="st0" d="M56.6 71.3v44.4H18.7V71.3h37.9m4.4-4.4H14.3v50c0 1.7 1.4 3.1 3.1 3.1h40.5c1.7 0 3.1-1.4 3.1-3.1v-50z"/><path id="XMLID_5_" class="st0" d="M26.6 108.2h.9c.9 0 1.7-.8 1.7-1.7V80.4c0-.9-.8-1.7-1.7-1.7h-.9c-.9 0-1.7.8-1.7 1.7v26.1c0 .9.8 1.7 1.7 1.7z"/><path id="XMLID_7_" class="st0" d="M37.2 108.2h.9c.9 0 1.7-.8 1.7-1.7V80.4c0-.9-.8-1.7-1.7-1.7h-.9c-.9 0-1.7.8-1.7 1.7v26.1c0 .9.8 1.7 1.7 1.7z"/><path id="XMLID_10_" class="st0" d="M47.8 108.2h.9c.9 0 1.7-.8 1.7-1.7V80.4c0-.9-.8-1.7-1.7-1.7h-.9c-.9 0-1.7.8-1.7 1.7v26.1c0 .9.8 1.7 1.7 1.7z"/><path id="XMLID_8_" class="st0" d="M9.4 68.6v.7c0 1 .8 1.8 1.8 1.8h53c1 0 1.8-.8 1.8-1.8v-.7c0-1-.8-1.8-1.8-1.8h-53c-1 .1-1.8.9-1.8 1.8z"/><path id="XMLID_11_" class="st0" d="m43.6 62.7 2.6 4.2H29l2.6-4.2h12m2.4-4.4H29.1l-1.3 2.1-2.6 4.2-4.1 6.7h33.1L50 64.5l-2.6-4.2-1.4-2z"/></svg>