<?xml version="1.0" encoding="utf-8"?>
<!-- Generator: Adobe Illustrator 19.0.0, SVG Export Plug-In . SVG Version: 6.00 Build 0)  -->
<svg version="1.1" id="Layer_1" xmlns="http://www.w3.org/2000/svg" xmlns:xlink="http://www.w3.org/1999/xlink" x="0px" y="0px"
	 viewBox="0 0 120 120" style="enable-background:new 0 0 120 120;" xml:space="preserve">
<style type="text/css">
	.st0{fill:#F6FAFB;}
</style>
<circle id="XMLID_1_" class="st0" cx="28.1" cy="57.1" r="23.6"/>
<path id="XMLID_2_" class="st0" d="M26.6,76L42,70.2l15,39.5c1.3,3.6-0.5,7.5-3.9,8.8l-2.8,1.1c-3.6,1.3-7.5-0.5-8.8-3.9L26.6,76z"
	/>
<path id="XMLID_3_" class="st0" d="M44.4,3.7c1.8-3.2,5.9-4.5,9.2-2.7l2.6,1.5c3.2,1.8,4.5,5.9,2.7,9.2L38.7,48.9L24.3,41L44.4,3.7z
	"/>
<path class="st0" d="M91.6,52.7h-4.4c-2.2,0-4,1.8-4,4v39.6c0,2.2,1.8,4,4,4h4.4c2.2,0,4-1.8,4-4V56.7
	C95.6,54.5,93.8,52.7,91.6,52.7z"/>
<path class="st0" d="M95.4,42.6l-3.1-3.1c-1.6-1.6-4.1-1.6-5.7,0L64.2,61.9c-1.6,1.6-1.6,4.1,0,5.7l3.1,3.1c1.6,1.6,4.1,1.6,5.7,0
	l22.4-22.4C96.9,46.7,96.9,44.2,95.4,42.6z"/>
<path class="st0" d="M83.5,42.6l3.1-3.1c1.6-1.6,4.1-1.6,5.7,0l22.4,22.4c1.6,1.6,1.6,4.1,0,5.7l-3.1,3.1c-1.6,1.6-4.1,1.6-5.7,0
	L83.5,48.3C81.9,46.7,81.9,44.2,83.5,42.6z"/>
</svg>
