<svg version="1.1" id="Layer_1" xmlns="http://www.w3.org/2000/svg" x="0" y="0" viewBox="0 0 120 120" style="enable-background:new 0 0 120 120" xml:space="preserve"><style>.st0{fill:#f6fafb}</style><circle id="XMLID_1_" class="st0" cx="82.4" cy="35.9" r="27.4"/><path id="XMLID_2_" class="st0" d="m80.6 58 17.9-6.8 17.6 46.2c1.5 3.9-.5 8.2-4.3 9.7l-4 1.5c-3.9 1.5-8.2-.5-9.7-4.3L80.6 58z"/><path id="XMLID_4_" class="st0" d="m9.6 8.2 1.7-3.9C13 .5 17.4-1.2 21.2.5l45.2 20.2-7.8 17.5-45.2-20.1C9.6 16.4 7.9 12 9.6 8.2z"/><path id="XMLID_6_" class="st0" d="m36.9 118.3 14.3-53L3.3 90.1l13.2 7.5-11.9 13.8 9.9 8.7 12.6-14.2z"/></svg>