<svg version="1.1" id="Layer_1" xmlns="http://www.w3.org/2000/svg" x="0" y="0" viewBox="0 0 120 120" style="enable-background:new 0 0 120 120" xml:space="preserve"><style>.st0{fill:#f6fafb}</style><g id="XMLID_1_"><path id="XMLID_19_" class="st0" d="M57.4 18.6c8.8 0 15.9 7.1 15.9 15.9s-7.1 15.9-15.9 15.9-15.9-7.1-15.9-15.9 7.1-15.9 15.9-15.9m0-6.2c-12.2 0-22.2 10-22.2 22.2s10 22.2 22.2 22.2 22.2-10 22.2-22.2-10-22.2-22.2-22.2z"/></g><path id="XMLID_2_" class="st0" d="M52 54.5v47.8c0 2.2 1.8 4 4 4h2.8c2.2 0 4-1.8 4-4V54.5H52z"/><path id="XMLID_4_" class="st0" d="M56 106.4h16.3c2.2 0 4-1.8 4-4v-2.8c0-2.2-1.8-4-4-4H56c-2.2 0-4 1.8-4 4v2.8c0 2.2 1.8 4 4 4z"/><path id="XMLID_6_" class="st0" d="M56 84.7h16.3c2.2 0 4-1.8 4-4v-2.8c0-2.2-1.8-4-4-4H56c-2.2 0-4 1.8-4 4v2.8c0 2.2 1.8 4 4 4z"/><path class="st0" d="m101.5 43.8-3 1.7c-1.6.9-2.4 2.8-1.8 4.6 1.3 3.8 2.1 7.9 2.1 12.2 0 8.8-3.1 16.9-8.3 23.2-1.3 1.6-1.1 4.1.5 5.4l2.6 2.2c1.7 1.4 4.1 1.1 5.5-.6 6.7-8.3 10.7-18.8 10.7-30.3 0-5.8-1-11.3-2.9-16.4-.7-2.2-3.3-3.1-5.4-2z"/><path class="st0" d="m103.4 33.7-2.6-1.4c-1.8-1-4.1-.4-5.1 1.5l-10.5 19c-1 1.8-.4 4.1 1.5 5.1l2.6 1.4c1.8 1 4.1.4 5.1-1.5l10.5-19c.9-1.8.3-4.1-1.5-5.1z"/><path class="st0" d="m95.7 33.7-1.4 2.6c-1 1.8-.4 4.1 1.5 5.1l17.4 9.6c1.8 1 4.1.4 5.1-1.5l1.4-2.6c1-1.8.4-4.1-1.5-5.1l-17.4-9.6c-1.8-.9-4.1-.3-5.1 1.5zM18.6 86.4l2.7-2.1c1.5-1.1 2-3.2 1.1-4.8-1.9-3.6-3.2-7.5-3.8-11.8-1.3-8.7.6-17.2 4.8-24.2 1.1-1.8.5-4.2-1.3-5.3l-2.9-1.8c-1.9-1.1-4.3-.5-5.4 1.4C8.3 47 5.9 58 7.5 69.3c.8 5.7 2.7 11 5.3 15.8 1.1 2.1 3.9 2.7 5.8 1.3z"/><path class="st0" d="m18.1 96.6 2.8 1c1.9.7 4.1-.3 4.8-2.2l7.6-20.3c.7-1.9-.3-4.1-2.2-4.8l-2.8-1c-1.9-.7-4.1.3-4.8 2.2L16 91.8c-.8 1.9.2 4.1 2.1 4.8z"/><path class="st0" d="m25.8 95.5 1-2.8c.7-1.9-.3-4.1-2.2-4.8L6 80.9c-1.9-.7-4.1.3-4.8 2.2l-1 2.8c-.7 1.9.3 4.1 2.2 4.8l18.6 7c1.9.7 4-.3 4.8-2.2z"/></svg>