<svg version="1.1" id="Layer_1" xmlns="http://www.w3.org/2000/svg" x="0" y="0" viewBox="0 0 120 120" style="enable-background:new 0 0 120 120" xml:space="preserve"><style>.st0{fill:#f6fafb}</style><g id="XMLID_1_"><path id="XMLID_19_" class="st0" d="M60 8c11.2 0 20.3 9.1 20.3 20.3S71.2 48.6 60 48.6s-20.3-9.1-20.3-20.3S48.8 8 60 8m0-8C44.4 0 31.7 12.7 31.7 28.3S44.4 56.6 60 56.6s28.3-12.7 28.3-28.3S75.6 0 60 0z"/></g><path id="XMLID_2_" class="st0" d="M53.1 53.8v61c0 2.8 2.3 5.1 5.1 5.1h3.6c2.8 0 5.1-2.3 5.1-5.1v-61H53.1z"/><path id="XMLID_4_" class="st0" d="M58.2 120H79c2.8 0 5.1-2.3 5.1-5.1v-3.6c0-2.8-2.3-5.1-5.1-5.1H58.2c-2.8 0-5.1 2.3-5.1 5.1v3.6c0 2.8 2.3 5.1 5.1 5.1z"/><path id="XMLID_6_" class="st0" d="M58.2 92.3H79c2.8 0 5.1-2.3 5.1-5.1v-3.6c0-2.8-2.3-5.1-5.1-5.1H58.2c-2.8 0-5.1 2.3-5.1 5.1v3.6c0 2.8 2.3 5.1 5.1 5.1z"/><path id="XMLID_5_" class="st0" d="M48.8 31.6h22.3c1.2 0 2.1-.9 2.1-2.1V27c0-1.2-.9-2.1-2.1-2.1H48.8c-1.2 0-2.1.9-2.1 2.1v2.5c0 1.2 1 2.1 2.1 2.1z"/></svg>