<svg version="1.1" id="Layer_1" xmlns="http://www.w3.org/2000/svg" x="0" y="0" viewBox="0 0 120 120" style="enable-background:new 0 0 120 120" xml:space="preserve"><style>.st0{fill:#f6fafb}</style><g id="XMLID_1_"><path id="XMLID_19_" class="st0" d="M22.5 22.5C35.3 9.7 56 9.7 68.8 22.5s12.8 33.5 0 46.3-33.5 12.8-46.3 0-12.8-33.5 0-46.3m-9.2-9.2c-17.8 17.8-17.8 46.8 0 64.6s46.8 17.8 64.6 0 17.8-46.8 0-64.6-46.8-17.7-64.6 0z"/></g><path id="XMLID_2_" class="st0" d="m62.7 74.8 43.9 43.9c2 2 5.7 1.6 8.2-.9l3.2-3.2c2.5-2.5 2.9-6.2.9-8.2l-44-43.8-12.2 12.2z"/><path id="XMLID_5_" class="st0" d="M51 63.7v-36c0-1.9-1.5-3.4-3.4-3.4h-4c-1.9 0-3.4 1.5-3.4 3.4v36c0 1.9 1.5 3.4 3.4 3.4h4c1.9 0 3.4-1.6 3.4-3.4z"/><path id="XMLID_7_" class="st0" d="M27.7 51h36c1.9 0 3.4-1.5 3.4-3.4v-4c0-1.9-1.5-3.4-3.4-3.4h-36c-1.9 0-3.4 1.5-3.4 3.4v4c0 1.9 1.5 3.4 3.4 3.4z"/></svg>