<?xml version="1.0" encoding="utf-8"?>
<!-- Generator: Adobe Illustrator 19.0.0, SVG Export Plug-In . SVG Version: 6.00 Build 0)  -->
<svg version="1.1" id="Layer_1" xmlns="http://www.w3.org/2000/svg" xmlns:xlink="http://www.w3.org/1999/xlink" x="0px" y="0px"
	 viewBox="0 0 120 120" style="enable-background:new 0 0 120 120;" xml:space="preserve">
<style type="text/css">
	.st0{fill:#F6FAFB;}
</style>
<g id="XMLID_1_">
	<path id="XMLID_19_" class="st0" d="M22.5,22.5C35.3,9.7,56,9.7,68.8,22.5s12.8,33.5,0,46.3s-33.5,12.8-46.3,0S9.7,35.3,22.5,22.5
		 M13.3,13.3c-17.8,17.8-17.8,46.8,0,64.6s46.8,17.8,64.6,0s17.8-46.8,0-64.6S31.1-4.4,13.3,13.3L13.3,13.3z"/>
</g>
<path id="XMLID_2_" class="st0" d="M62.7,74.8l43.9,43.9c2,2,5.7,1.6,8.2-0.9l3.2-3.2c2.5-2.5,2.9-6.2,0.9-8.2L74.9,62.6
	C74.9,62.6,62.7,74.8,62.7,74.8z"/>
<path id="XMLID_7_" class="st0" d="M27.7,51h36c1.9,0,3.4-1.5,3.4-3.4v-4c0-1.9-1.5-3.4-3.4-3.4h-36c-1.9,0-3.4,1.5-3.4,3.4v4
	C24.3,49.5,25.8,51,27.7,51z"/>
</svg>
