<svg version="1.1" id="Layer_1" xmlns="http://www.w3.org/2000/svg" x="0" y="0" viewBox="0 0 120 120" style="enable-background:new 0 0 120 120" xml:space="preserve"><style>.st0{fill:#f6fafb}</style><path id="XMLID_1_" class="st0" d="m2.9 67.1 4.7 4.6c3.9 3.9 10.2 3.9 14.1 0l42.5-42.4c3.9-3.9 3.9-10.2 0-14.1l-4.7-4.6c-3.9-3.9-10.2-3.9-14.1 0L2.9 53C-1 56.9-1 63.2 2.9 67.1z"/><path id="XMLID_3_" class="st0" d="m7.6 48.2-4.7 4.6C-1 56.8-1 63.1 2.9 67l42.5 42.4c3.9 3.9 10.2 3.9 14.1 0l4.7-4.6c3.9-3.9 3.9-10.2 0-14.1L21.7 48.2c-3.9-3.9-10.2-3.9-14.1 0z"/><path id="XMLID_5_" class="st0" d="m55.8 67.1 4.7 4.6c3.9 3.9 10.2 3.9 14.1 0l42.5-42.4c3.9-3.9 3.9-10.2 0-14.1l-4.7-4.6c-3.9-3.9-10.2-3.9-14.1 0L55.8 53c-3.9 3.9-3.9 10.2 0 14.1z"/><path id="XMLID_4_" class="st0" d="m60.5 48.2-4.7 4.6c-3.9 3.9-3.9 10.2 0 14.1l42.5 42.4c3.9 3.9 10.2 3.9 14.1 0l4.7-4.6c3.9-3.9 3.9-10.2 0-14.1L74.6 48.2c-3.9-3.9-10.2-3.9-14.1 0z"/></svg>