<svg xmlns="http://www.w3.org/2000/svg" viewBox="0 0 120 120" style="enable-background:new 0 0 120 120" xml:space="preserve"><path d="m52.6 80.3 4.2 11.3c.7 1.9 0 4-1.7 5.1l-35.8 22.5c-3.4 2.1-7.8-.3-7.8-4.3v-59c0-3.1 3.1-5.1 5.9-3.9l9.6 4.3c1.4.6 2.3 2 2.3 3.5 0 .5.1.9.1 1.4 1.1 9.5 9.5 16.5 19.1 16.5 2-.1 3.5 1 4.1 2.6z" style="fill:#dae0e5"/><path d="M106.7 64.3 73.7 85c-2.3 1.4-5.3.4-6.2-2.1l-3.7-9.8c-.5-1.3-.3-2.7.5-3.8 2.4-3.5 3.7-7.7 3.3-12.3-.7-9.6-8.7-17.3-18.4-17.6-4.9-.2-9.3 1.5-12.8 4.3-1.2 1-2.9 1.3-4.4.6l-18-8.1c-1.5-.7-2.5-2.2-2.5-3.9V5.1c0-4 4.4-6.4 7.8-4.3l87.3 54.9c3.3 2 3.3 6.6.1 8.6z" style="fill:#772fea"/></svg>