<svg version="1.1" id="Layer_1" xmlns="http://www.w3.org/2000/svg" x="0" y="0" viewBox="0 0 120 120" style="enable-background:new 0 0 120 120" xml:space="preserve"><style>.st0{fill:#f6fafb}</style><path id="XMLID_1_" class="st0" d="M112 119.5H8c-4.4 0-8-3.6-8-8s3.6-8 8-8h104c4.4 0 8 3.6 8 8s-3.6 8-8 8z"/><path id="XMLID_3_" class="st0" d="M15.9 80.8v30.8c0 4.4-3.6 8-8 8s-8-3.6-8-8V80.8c0-4.4 3.6-8 8-8 4.5 0 8 3.6 8 8z"/><path id="XMLID_4_" class="st0" d="M120 80.8v30.8c0 4.4-3.6 8-8 8s-8-3.6-8-8V80.8c0-4.4 3.6-8 8-8s8 3.6 8 8z"/><path id="XMLID_5_" class="st0" d="M68 25.3v48.6c0 4.4-3.6 8-8 8s-8-3.6-8-8V25.3c0-4.4 3.6-8 8-8s8 3.6 8 8z"/><path id="XMLID_7_" class="st0" d="m54.4 3.1-24 24c-3.1 3.1-3.1 8.2 0 11.3 3.1 3.1 8.2 3.1 11.3 0l24-24c3.1-3.1 3.1-8.2 0-11.3-3.2-3.1-8.2-3.1-11.3 0z"/><path id="XMLID_6_" class="st0" d="m65.6 3.1 24 24c3.1 3.1 3.1 8.2 0 11.3-3.1 3.1-8.2 3.1-11.3 0l-24-24c-3.1-3.1-3.1-8.2 0-11.3 3.2-3.1 8.2-3.1 11.3 0z"/></svg>